<?xml version="1.0" encoding="utf-8"?>
<!-- Generator: Adobe Illustrator 19.2.0, SVG Export Plug-In . SVG Version: 6.00 Build 0)  -->
<svg version="1.1" id="Layer_1" xmlns="http://www.w3.org/2000/svg" xmlns:xlink="http://www.w3.org/1999/xlink" x="0px" y="0px"
	 viewBox="0 0 500 500" style="enable-background:new 0 0 500 500;" xml:space="preserve">
<style type="text/css">
	.st0{fill:#F9F90B;}
</style>
<g>
	<path d="M181.1,191.6L21,140.1v221.1l160.1-49.4l298.2,79.4V110.1L181.1,191.6z M79.4,299.2c-3.9,21.2-17.8,15.1-22.4,15.3
		c0,0,2.2-76.1,0.7-89.5c0,0-17-0.9-19.9-10.7c-1.6-5.1-2.2-19.6-0.5-35c0,0,18.5,5.3,28.6,9.5c19.7,6.4,35,8,35,8s4,20.3-2.3,25.4
		c-5.7,4.7-9.6,3.3-17.5,3.3C81.2,225.7,81.7,284.6,79.4,299.2z M151.4,290.2c-2.3,0.7-4.5,0.8-5.7-1.6c-1.8-3.6-4.1-10.7-4.1-11.4
		c-6.8,2.1-14.2,3.6-20.6,3.3c0,0-2.7,9.5-5.7,15.9c-1.7,3.9-4.5,5.6-6.8,6.3c-8,0.7-13.1-1.6-13.1-1.6s6.8-30.4,13.1-53.4
		c4.5-17.6,9.2-31.8,9.7-33.3c1.1-4.7,3.4-12,10.3-10c7.9,2.4,15.9,10.3,15.9,10.3s6.9,21.8,12.1,37.2c5,14.9,10.2,28.9,10.2,28.9
		S165.1,286,151.4,290.2z M256.7,224.7c-5.7,5.2-9.6,4.8-17.5,6.2c0,0,0.6,43-1.8,52.9c-3.9,13.3-17.8,3.5-22.4,1.9
		c0,0,2.2-43.8,0.7-51.4c0,0-17,1.9-19.9-2.4c-1.6-2.1-2.2-8.7-0.5-16.4c0,0,18.5-3.8,28.6-5.1c19.7-3.4,35-8.8,35-8.8
		S262.9,218.4,256.7,224.7z M309.5,297.2c0,2.9-1,8.5-4.5,8.9c-6.3,2.4-19.5-5-19.5-5s0.5-22.1,0.5-33
		c-4.5-15.2-24.7-63.9-24.7-63.9s4.1-3.2,12.1-4.9c8.6-1.8,11.4,2,14.3,11.4c2.4,7.7,10.4,28.5,10.4,28.5s10.4-29.9,12.1-36.7
		c2.3-8.3,5.7-12,9.7-14c4.6-1,10.4-2.2,13.8,0.2c-6.3,37.7-20.1,63.7-24.7,81C309,269.6,309.5,293.1,309.5,297.2z M394.7,238.5
		c-2.3,15.1-6.9,26.3-13.8,33.3C373,279.6,357,277,357,277l0.6,37.7c0,0-8,3.9-15.4-0.9c-2.8-1.7-5.2-5.5-6.3-8.7
		c-0.6-3.4,1.7-116.4,1.7-116.4s9.7-5.2,22.9-7.9c12.6-3.8,28-4.4,32.6,12.2C397.1,208.9,396.4,224.3,394.7,238.5z M445.7,236
		c0,0,3,25.9-5,31.8c-4.1,2.9-9.7,2.6-15.6,0.7c0,3.9-0.6,20.4-0.6,24.7c15.6,8.8,29.2,1.5,29.2,1.5c0,26.5-0.6,32.3-5,35.8
		c-5.2,6.4-10.3,5.3-20.2,3.2c-16.5-4.8-26.7-9.7-26.7-9.7s1.8-81.2,1.2-107.4c0-25.9,0-42.7,0-42.7l7.4-1.5
		c20-2.7,46.3-12.3,46.3-12.3s1.7,36.8-5.2,46.6c-5.2,7.7-17.7,7.1-25.7,7.8c0,0,0,6.8,0,22.1C431,237.8,440.7,237.6,445.7,236z"/>
	<path d="M124,261.1c0,0,7.4,1.8,16.1-0.5l-8.1-23.9C128.1,247.9,124,261.1,124,261.1z"/>
	<path d="M357,213.3c-0.6,12.6-0.6,21.8,0,32c7.4,1.1,12.6-0.2,16-6.1c3.5-6.3,4.1-19.5,0-23.9C367.8,209.8,357,213.3,357,213.3z"/>
</g>
</svg>
