<?xml version="1.0" encoding="UTF-8" standalone="no"?>
<!-- Created with Inkscape (http://www.inkscape.org/) -->

<svg
   xmlns:dc="http://purl.org/dc/elements/1.1/"
   xmlns:cc="http://creativecommons.org/ns#"
   xmlns:rdf="http://www.w3.org/1999/02/22-rdf-syntax-ns#"
   xmlns:svg="http://www.w3.org/2000/svg"
   xmlns="http://www.w3.org/2000/svg"
   xmlns:sodipodi="http://sodipodi.sourceforge.net/DTD/sodipodi-0.dtd"
   xmlns:inkscape="http://www.inkscape.org/namespaces/inkscape"
   width="800"
   height="400"
   viewBox="0 0 800.00001 400.00001"
   id="svg4214"
   version="1.1"
   inkscape:version="0.91 r13725"
   sodipodi:docname="tatype.svg">
  <defs
     id="defs4216" />
  <sodipodi:namedview
     id="base"
     pagecolor="#ffffff"
     bordercolor="#666666"
     borderopacity="1.0"
     inkscape:pageopacity="0.0"
     inkscape:pageshadow="2"
     inkscape:zoom="0.98994949"
     inkscape:cx="390.66758"
     inkscape:cy="225.71429"
     inkscape:document-units="px"
     inkscape:current-layer="layer1"
     showgrid="false"
     units="px"
     inkscape:window-width="1366"
     inkscape:window-height="705"
     inkscape:window-x="-8"
     inkscape:window-y="-8"
     inkscape:window-maximized="1" />
  <metadata
     id="metadata4219">
    <rdf:RDF>
      <cc:Work
         rdf:about="">
        <dc:format>image/svg+xml</dc:format>
        <dc:type
           rdf:resource="http://purl.org/dc/dcmitype/StillImage" />
        <dc:title></dc:title>
      </cc:Work>
    </rdf:RDF>
  </metadata>
  <g
     inkscape:label="Layer 1"
     inkscape:groupmode="layer"
     id="layer1"
     transform="translate(0,-652.36216)">
    <path
       style="font-style:normal;font-weight:normal;font-size:370.35888672px;line-height:125%;font-family:sans-serif;letter-spacing:0px;word-spacing:0px;fill:#ffff00;fill-opacity:1;stroke:none;stroke-width:1px;stroke-linecap:butt;stroke-linejoin:miter;stroke-opacity:1"
       d="m 114.48997,783.32613 0,8.0603 c 0,3.8212 -1.07545,6.9856 -3.22488,9.4933 -2.14944,2.3883 -6.34508,3.8272 -16.00708,3.8272 l -7.49554,29.4765 20.99563,-0.3454 0,32.4207 c 0,7.6425 0.8352,14.0313 2.50699,19.1661 1.79119,5.1348 4.29868,9.3136 7.52284,12.5378 3.22416,3.1047 7.16557,5.3138 11.82269,6.6273 4.77653,1.3136 10.20911,1.9705 16.29919,1.9705 6.09006,0 11.76289,-0.5368 17.01707,-1.6115 5.3736,-1.0747 9.97097,-2.3285 13.79219,-3.7615 l 0,-28.1218 c -5.13476,1.0747 -10.09062,1.6115 -14.86715,1.6115 -3.46298,0 -6.09059,-0.8953 -7.88179,-2.6865 -1.67178,-1.7912 -2.50699,-4.7172 -2.50699,-8.7773 l 0,-29.3753 24.18098,0 0,-29.3754 -24.18098,0 0,-21.1365 z m 123.17193,15.0466 c -9.31423,0 -18.38887,0.656 -27.22545,1.9695 -8.83657,1.1942 -16.29992,2.6271 -22.39,4.2989 l -0.35894,28.8389 c 6.09006,-1.3136 12.65816,-2.5082 19.70353,-3.5829 7.16479,-1.1942 14.32974,-1.791 21.49452,-1.791 6.68714,0 11.22445,1.2537 13.61272,3.7614 2.38826,2.5077 3.58289,6.6274 3.58289,12.3592 -24.53962,-7.0839 -42.42017,-3.6835 -51.89646,3.8918 -11.47411,9.1725 -12.58708,19.1552 -12.58708,30.4995 0,9.0754 2.92604,16.001 8.77728,20.7775 5.85125,4.7766 13.9715,7.1649 24.36044,7.1649 4.29889,0 8.12018,-0.5368 11.46375,-1.6115 3.46298,-0.9553 6.44813,-2.15 8.9558,-3.5829 2.6271,-1.433 4.83617,-2.9852 6.62737,-4.6569 1.79119,-1.7912 3.22418,-3.4035 4.2989,-4.8364 l 0,12.1807 41.19711,0 0,-29.3763 0,-29.3754 c 0,-7.1648 -0.77608,-13.4335 -2.32845,-18.8071 -1.55238,-5.493 -4.23911,-10.0313 -8.06033,-13.6137 -3.82122,-3.7018 -8.95632,-7.0454 -15.40464,-10.0307 -6.32889,-2.9854 -14.26991,-4.4775 -23.82296,-4.4775 z m 8.41927,63.7666 0,1.074 c 0,7.6425 -3.64205,11.4638 -10.92627,11.4638 -6.56772,0 -9.85223,-1.9107 -9.85223,-5.7319 0,-2.5077 1.61222,-4.2391 4.83638,-5.1944 3.22415,-1.0747 8.5385,-1.6115 15.94212,-1.6115 z"
       id="text4136-2"
       inkscape:connector-curvature="0"
       sodipodi:nodetypes="csccccscccscccscsccccccsccccsscsssscccccccscccscssscc" />
    <path
       style="font-style:normal;font-weight:normal;font-size:180px;line-height:125%;font-family:sans-serif;letter-spacing:0px;word-spacing:0px;fill:#ffff00;fill-opacity:1;stroke:none;stroke-width:1px;stroke-linecap:butt;stroke-linejoin:miter;stroke-opacity:1"
       d="m 306.33846,782.88673 0,8.1015 c 0,3.84 -1.07828,7.0191 -3.23828,9.5391 -2.16,2.4 -5.6414,3.5996 -10.44141,3.5996 l -4.5,29.5195 12.41993,0 0,32.5801 c 0,7.68 0.84148,14.1017 2.52148,19.2617 1.8,5.16 4.3186,9.3596 7.55859,12.5996 3.24001,3.12 7.20086,5.3402 11.88086,6.6602 4.8,1.32 10.25891,1.9785 16.37891,1.9785 6.12,0 11.82156,-0.5391 17.10156,-1.6191 5.4,-1.08 10.01938,-2.3393 13.85938,-3.7793 l 0,-28.2617 c -5.16,1.08 -10.13945,1.621 -14.93945,1.621 -3.48,0 -6.11993,-0.8992 -7.91993,-2.6992 -1.68,-1.8 -2.52148,-4.7403 -2.52148,-8.8203 l 0,-29.5215 24.30078,0 0,-29.5195 -24.30078,0 0,-21.2402 z m 254.07422,18.7207 c -3.48,0 -6.66101,0.5391 -9.54101,1.6191 -2.88,0.96 -5.51993,2.1616 -7.91993,3.6016 -2.4,1.44 -4.49882,3.0593 -6.29882,4.8593 -1.68,1.68 -3.06063,3.2397 -4.14063,4.6797 l 0,-12.2402 -42.48047,0 0,29.5195 0,81 0,29.5215 42.48047,0 0,-29.5215 0,-22.6797 c 1.08,1.44 2.46063,3.0614 4.14063,4.8614 1.8,1.68 3.89882,3.2397 6.29882,4.6797 2.4,1.44 5.03993,2.6396 7.91993,3.5996 2.88,1.08 6.06101,1.6191 9.54101,1.6191 12.48,0 21.71875,-4.5597 27.71875,-13.6797 6.12,-9.24 9.17969,-22.1989 9.17969,-38.8789 0,-16.68 -3.05969,-29.5812 -9.17969,-38.7012 -6,-9.24 -15.23875,-13.8593 -27.71875,-13.8593 z m 94.83399,0 c -8.28,0 -15.78,1.0802 -22.5,3.2402 -6.72,2.16 -12.4793,5.4604 -17.2793,9.9004 -4.68,4.32 -8.28078,9.7789 -10.80078,16.3789 -2.52,6.6 -3.7793,14.281 -3.7793,23.041 0,8.88 1.2593,16.6188 3.7793,23.2188 2.52,6.48 6.12078,11.9408 10.80078,16.3808 4.8,4.32 10.5593,7.5607 17.2793,9.7207 6.72,2.16 14.22,3.2383 22.5,3.2383 5.76,0 10.92046,-0.2984 15.48046,-0.8984 4.56,-0.48 8.64024,-1.1405 12.24024,-1.9805 3.6,-0.96 6.77906,-1.9209 9.53906,-2.8809 2.88,-1.08 5.40055,-2.1602 7.56055,-3.2402 l 0,-28.7988 c -4.32,1.44 -9.78086,2.759 -16.38086,3.959 -6.6,1.2 -13.8593,1.8007 -21.7793,1.8007 -6.48,0 -10.98,-1.0802 -13.5,-3.2402 -2.4,-2.16 -3.59961,-5.4007 -3.59961,-9.7207 l 0,-1.0801 58.32032,0 0,-12.959 c -10e-6,-5.64 -0.77985,-11.2202 -2.33985,-16.7402 -1.44,-5.52 -4.02023,-10.4398 -7.74023,-14.7598 -3.72,-4.32 -8.63977,-7.7994 -14.75977,-10.4394 -6.12,-2.76 -13.80101,-4.1406 -23.04101,-4.1406 z m -277.86914,2.5195 0,29.5195 0,29.5215 c -10e-6,15.48 2.88062,26.5192 8.64062,33.1192 5.88,6.96 13.61875,10.4394 23.21875,10.4394 4.08,0 7.68078,-0.5391 10.80078,-1.6191 3.12,-0.96 5.8793,-2.1596 8.2793,-3.5996 2.4,-1.44 4.50078,-2.9997 6.30078,-4.6797 1.92,-1.68 3.59906,-3.3014 5.03906,-4.8614 l 0,7.5606 c 0,6.12 -1.61937,10.1405 -4.85937,12.0605 -3.24,2.04 -8.10008,3.0586 -14.58008,3.0586 -7.56,0 -14.33984,-0.2984 -20.33984,-0.8984 -5.88,-0.48 -12.12071,-1.3215 -18.72071,-2.5215 l -3.59961,29.5215 c 5.64,1.68 13.08032,3.0587 22.32032,4.1387 9.35999,1.2 18.36,1.8007 27,1.8007 18,0 31.49999,-4.2593 40.5,-12.7793 9.11999,-8.52 13.67968,-21.7812 13.67968,-39.7812 l 0,-90 -43.40039,0 0,29.5195 0,29.5215 c 0,4.08 -0.89922,7.0203 -2.69922,8.8203 -1.68,1.8 -2.26023,2.6992 -5.74023,2.6992 -3.48,0 -4.11992,-0.8992 -5.91992,-2.6992 -1.68,-1.8 -2.51953,-4.7403 -2.51953,-8.8203 l 0,-59.041 z m 277.86914,29.5195 c 3.48,0 6.06023,0.9012 7.74023,2.7012 1.8,1.8 2.69922,4.7403 2.69922,8.8203 l 0,1.0801 -20.87891,0 0,-1.0801 c 0,-4.08 0.83953,-7.0203 2.51953,-8.8203 1.8,-1.8 4.43993,-2.7012 7.91993,-2.7012 z m -112.29493,7.2012 c 2.28,0 4.25946,0.8992 5.93946,2.6992 1.8,1.8 2.70117,4.7403 2.70117,8.8203 l 0,3.5996 c 0,4.08 -0.90117,7.0204 -2.70117,8.8204 -1.68,1.8 -3.65946,2.7011 -5.93946,2.7011 -2.28,0 -4.31914,-0.9011 -6.11914,-2.7011 -1.68,-1.8 -2.52148,-4.7404 -2.52148,-8.8204 l 0,-3.5996 c 0,-4.08 0.84148,-7.0203 2.52148,-8.8203 1.8,-1.8 3.83914,-2.6992 6.11914,-2.6992 z"
       id="text4140-1"
       inkscape:connector-curvature="0"
       sodipodi:nodetypes="csccccscccscccscsccccccscssccccccccccscscscssscssccsscccccsscsccscscsccscscsccscsccccscscccscscsccscsccscsscsscscsscs" />
    <path
       style="font-style:normal;font-weight:normal;font-size:370.35888672px;line-height:125%;font-family:sans-serif;letter-spacing:0px;word-spacing:0px;fill:none;fill-opacity:1;stroke:#000000;stroke-width:1px;stroke-linecap:butt;stroke-linejoin:miter;stroke-opacity:1"
       d="m 119.38568,788.54773 0,8.0603 c 0,3.8212 -1.07545,6.9856 -3.22488,9.4933 -2.14944,2.3882 -6.34508,3.8272 -16.00709,3.8272 l -7.49553,29.4765 20.99563,-0.3455 0,32.4208 c 0,7.6425 0.8352,14.0313 2.50699,19.1661 1.79119,5.1347 4.29868,9.3136 7.52284,12.5377 3.22416,3.1048 7.16557,5.3138 11.82269,6.6274 4.77653,1.3135 10.20911,1.9704 16.29919,1.9704 6.09006,0 11.76289,-0.5367 17.01707,-1.6115 5.3736,-1.0747 9.97097,-2.3284 13.79219,-3.7614 l 0,-28.1218 c -5.13476,1.0747 -10.09062,1.6114 -14.86715,1.6114 -3.46298,0 -6.09059,-0.8952 -7.8818,-2.6864 -1.67177,-1.7912 -2.50698,-4.7172 -2.50698,-8.7773 l 0,-29.3754 24.18098,0 0,-29.3753 -24.18098,0 0,-21.1365 z m 123.17193,15.0466 c -9.31423,0 -18.38887,0.656 -27.22545,1.9695 -8.83657,1.1941 -16.29992,2.6271 -22.39,4.2989 l -0.35895,28.8388 c 6.09007,-1.3135 12.65817,-2.5081 19.70354,-3.5829 7.16479,-1.1941 14.32974,-1.7909 21.49452,-1.7909 6.68714,0 11.22445,1.2537 13.61272,3.7614 2.38826,2.5077 3.58289,6.6274 3.58289,12.3592 -24.53962,-7.0839 -42.42017,-3.6836 -51.89646,3.8918 -11.47411,9.1725 -12.58708,19.1552 -12.58708,30.4994 0,9.0754 2.92604,16.0011 8.77728,20.7776 5.85125,4.7765 13.9715,7.1648 24.36044,7.1648 4.29889,0 8.12018,-0.5367 11.46375,-1.6115 3.46298,-0.9553 6.44813,-2.1499 8.9558,-3.5828 2.6271,-1.433 4.83617,-2.9852 6.62737,-4.657 1.79119,-1.7912 3.22418,-3.4034 4.2989,-4.8363 l 0,12.1807 41.19711,0 0,-29.3764 0,-29.3753 c 0,-7.1648 -0.77608,-13.4335 -2.32845,-18.8071 -1.55238,-5.493 -4.23911,-10.0313 -8.06033,-13.6137 -3.82122,-3.7018 -8.95632,-7.0454 -15.40464,-10.0308 -6.32889,-2.9853 -14.26991,-4.4774 -23.82296,-4.4774 z m 8.41927,63.7666 0,1.074 c 0,7.6424 -3.64205,11.4637 -10.92627,11.4637 -6.56772,0 -9.85223,-1.9106 -9.85223,-5.7318 0,-2.5077 1.61222,-4.2391 4.83638,-5.1944 3.22415,-1.0747 8.5385,-1.6115 15.94212,-1.6115 z"
       id="text4136-2-2"
       inkscape:connector-curvature="0"
       sodipodi:nodetypes="csccccscccscccscsccccccsccccsscsssscccccccscccscssscc" />
    <path
       style="font-style:normal;font-weight:normal;font-size:180px;line-height:125%;font-family:sans-serif;letter-spacing:0px;word-spacing:0px;fill:none;fill-opacity:1;stroke:#000000;stroke-width:1px;stroke-linecap:butt;stroke-linejoin:miter;stroke-opacity:1"
       d="m 311.23417,788.10823 0,8.1016 c 0,3.84 -1.07828,7.0191 -3.23828,9.5391 -2.16,2.4 -5.6414,3.5996 -10.44141,3.5996 l -4.5,29.5195 12.41993,0 0,32.5801 c 0,7.68 0.84148,14.1017 2.52148,19.2617 1.8,5.16 4.3186,9.3596 7.55859,12.5996 3.24001,3.12 7.20086,5.3402 11.88086,6.6602 4.8,1.32 10.25891,1.9785 16.37891,1.9785 6.12,0 11.82156,-0.5392 17.10156,-1.6192 5.4,-1.08 10.01938,-2.3392 13.85938,-3.7792 l 0,-28.2618 c -5.16,1.08 -10.13945,1.6211 -14.93945,1.6211 -3.48,0 -6.11993,-0.8992 -7.91993,-2.6992 -1.68,-1.8 -2.52148,-4.7403 -2.52148,-8.8203 l 0,-29.5215 24.30078,0 0,-29.5195 -24.30078,0 0,-21.2403 z m 254.07422,18.7207 c -3.48,0 -6.66101,0.5392 -9.54101,1.6192 -2.88,0.96 -5.51993,2.1616 -7.91993,3.6016 -2.4,1.44 -4.49882,3.0593 -6.29882,4.8593 -1.68,1.68 -3.06063,3.2397 -4.14063,4.6797 l 0,-12.2402 -42.48047,0 0,29.5195 0,81 0,29.5215 42.48047,0 0,-29.5215 0,-22.6797 c 1.08,1.44 2.46063,3.0614 4.14063,4.8614 1.8,1.68 3.89882,3.2396 6.29882,4.6796 2.4,1.44 5.03993,2.6396 7.91993,3.5996 2.88,1.08 6.06101,1.6192 9.54101,1.6192 12.48,0 21.71875,-4.5597 27.71875,-13.6797 6.12,-9.24 9.17969,-22.1989 9.17969,-38.8789 0,-16.68 -3.05969,-29.5812 -9.17969,-38.7012 -6,-9.24 -15.23875,-13.8594 -27.71875,-13.8594 z m 94.83399,0 c -8.28,0 -15.78,1.0803 -22.5,3.2403 -6.72,2.16 -12.4793,5.4604 -17.2793,9.9004 -4.68,4.32 -8.28078,9.7789 -10.80078,16.3789 -2.52,6.6 -3.7793,14.281 -3.7793,23.041 0,8.88 1.2593,16.6187 3.7793,23.2187 2.52,6.48 6.12078,11.9409 10.80078,16.3809 4.8,4.32 10.5593,7.5607 17.2793,9.7207 6.72,2.16 14.22,3.2383 22.5,3.2383 5.76,0 10.92046,-0.2984 15.48046,-0.8984 4.56,-0.48 8.64024,-1.1405 12.24024,-1.9805 3.6,-0.96 6.77906,-1.9209 9.53906,-2.8809 2.88,-1.08 5.40055,-2.1602 7.56055,-3.2402 l 0,-28.7988 c -4.32,1.44 -9.78086,2.7589 -16.38086,3.9589 -6.6,1.2 -13.8593,1.8008 -21.7793,1.8008 -6.48,0 -10.98,-1.0802 -13.5,-3.2402 -2.4,-2.16 -3.59961,-5.4007 -3.59961,-9.7207 l 0,-1.0801 58.32032,0 0,-12.959 c -10e-6,-5.64 -0.77985,-11.2202 -2.33985,-16.7402 -1.44,-5.52 -4.02023,-10.4398 -7.74023,-14.7598 -3.72,-4.32 -8.63977,-7.7994 -14.75977,-10.4394 -6.12,-2.76 -13.80101,-4.1407 -23.04101,-4.1407 z m -277.86914,2.5196 0,29.5195 0,29.5215 c -10e-6,15.48 2.88062,26.5191 8.64062,33.1191 5.88,6.96 13.61875,10.4395 23.21875,10.4395 4.08,0 7.68078,-0.5392 10.80078,-1.6192 3.12,-0.96 5.8793,-2.1596 8.2793,-3.5996 2.4,-1.44 4.50078,-2.9996 6.30078,-4.6796 1.92,-1.68 3.59906,-3.3014 5.03906,-4.8614 l 0,7.5606 c 0,6.12 -1.61937,10.1405 -4.85937,12.0605 -3.24,2.04 -8.10008,3.0586 -14.58008,3.0586 -7.56,0 -14.33984,-0.2984 -20.33984,-0.8984 -5.88,-0.48 -12.12071,-1.3215 -18.72071,-2.5215 l -3.59961,29.5215 c 5.64,1.68 13.08032,3.0586 22.32032,4.1386 9.35999,1.2 18.36,1.8008 27,1.8008 18,0 31.49999,-4.2593 40.5,-12.7793 9.11999,-8.52 13.67968,-21.7812 13.67968,-39.7812 l 0,-90 -43.40039,0 0,29.5195 0,29.5215 c 0,4.08 -0.89922,7.0203 -2.69922,8.8203 -1.68,1.8 -2.26023,2.6992 -5.74023,2.6992 -3.48,0 -4.11992,-0.8992 -5.91992,-2.6992 -1.68,-1.8 -2.51953,-4.7403 -2.51953,-8.8203 l 0,-59.041 z m 277.86914,29.5195 c 3.48,0 6.06023,0.9012 7.74023,2.7012 1.8,1.8 2.69922,4.7403 2.69922,8.8203 l 0,1.0801 -20.87891,0 0,-1.0801 c 0,-4.08 0.83953,-7.0203 2.51953,-8.8203 1.8,-1.8 4.43993,-2.7012 7.91993,-2.7012 z m -112.29493,7.2012 c 2.28,0 4.25946,0.8992 5.93946,2.6992 1.8,1.8 2.70117,4.7403 2.70117,8.8203 l 0,3.5996 c 0,4.08 -0.90117,7.0203 -2.70117,8.8203 -1.68,1.8 -3.65946,2.7012 -5.93946,2.7012 -2.28,0 -4.31914,-0.9012 -6.11914,-2.7012 -1.68,-1.8 -2.52148,-4.7403 -2.52148,-8.8203 l 0,-3.5996 c 0,-4.08 0.84148,-7.0203 2.52148,-8.8203 1.8,-1.8 3.83914,-2.6992 6.11914,-2.6992 z"
       id="text4140-1-2"
       inkscape:connector-curvature="0"
       sodipodi:nodetypes="csccccscccscccscsccccccscssccccccccccscscscssscssccsscccccsscsccscscsccscscsccscsccccscscccscscsccscsccscsscsscscsscs" />
  </g>
</svg>
