<?xml version="1.0" encoding="iso-8859-1"?>
<!-- Generator: Adobe Illustrator 21.1.0, SVG Export Plug-In . SVG Version: 6.00 Build 0)  -->
<svg version="1.1" id="Layer_1" xmlns="http://www.w3.org/2000/svg" xmlns:xlink="http://www.w3.org/1999/xlink" x="0px" y="0px"
	 width="1028px" height="242px" viewBox="0 0 1028 242" enable-background="new 0 0 1028 242" xml:space="preserve">
<polygon fill="#232323" points="236.117,203.343 381.974,203.343 309.046,40.998 "/>
<polygon fill="#232323" points="255.365,85.325 255.365,40.658 127.273,40.658 127.273,85.325 166.944,85.325 166.944,203.343 
	215.694,203.343 215.694,85.325 "/>
<polygon fill="#232323" points="363.279,85.325 402.95,85.325 402.95,203.343 451.7,203.343 451.7,85.325 491.371,85.325 
	491.371,40.658 363.279,40.658 "/>
<polygon fill="#232323" points="858.757,158.677 858.757,146.336 921.661,146.336 921.661,96.45 858.757,96.45 858.757,85.325 
	926.661,85.325 926.661,40.658 858.757,40.658 857.416,40.658 810.007,40.658 810.007,203.343 857.416,203.343 858.757,203.343 
	928.75,203.343 928.75,158.677 "/>
<path fill="#232323" d="M740.251,40.658H720.42h-3.425H671.67v162.685h48.75v-60.518h19.832c28.213,0,51.083-22.871,51.083-51.083
	C791.335,63.529,768.464,40.658,740.251,40.658z"/>
<polygon fill="#232323" points="608.503,40.998 599.253,40.998 554.142,40.998 550.503,40.998 505.392,40.998 527.947,78.961 
	552.018,119.473 556.947,127.77 556.947,127.77 557.16,128.128 556.947,128.128 556.947,203.343 605.697,203.343 605.697,128.128 
	605.485,128.128 657.253,40.998 "/>
</svg>
